<?xml version="1.0" encoding="UTF-8"?>
<svg id="_Слой_2" data-name="Слой 2" xmlns="http://www.w3.org/2000/svg" viewBox="0 0 113.38 40.34">
  <defs>
    <style>
      .cls-1 {
        fill: #fff;
      }
    </style>
  </defs>
  <g id="_Слой_1-2" data-name="Слой 1">
    <g>
      <g>
        <path class="cls-1" d="m15.79,0c4.27,0,8.26,1.74,11.17,4.71,2.89,2.97,4.62,7.03,4.62,11.39s-1.74,8.42-4.62,11.41c-2.91,2.97-6.9,4.71-11.17,4.71s-8.26-1.74-11.19-4.71C1.71,24.51,0,20.5,0,16.1S1.71,7.68,4.6,4.71C7.53,1.74,11.52,0,15.79,0Zm0,27.09c2.89,0,5.57-1.24,7.51-3.23,2.08-2.15,3.12-4.75,3.12-7.77,0-6.05-4.75-10.93-10.63-10.93-2.88,0-5.57,1.17-7.51,3.21-2.08,2.1-3.15,4.71-3.15,7.72,0,6.05,4.77,11,10.65,11Z"/>
        <path class="cls-1" d="m51.35,11.95c0,3.8-1.78,7.25-4.88,9.44l6.07,10.24h-6.03l-4.84-8.22c-.69.11-1.34.17-1.97.2h-.5v8.03h-5.18V.54h5.44c3.32,0,6.14,1.11,8.44,3.3,2.17,2.1,3.45,4.99,3.45,8.11Zm-12.15-6.25v12.73h.43c3.73-.07,6.55-2.86,6.55-6.49s-2.89-6.25-6.72-6.25h-.26Z"/>
        <path class="cls-1" d="m69.5,0c4.27,0,8.26,1.74,11.17,4.71,2.89,2.97,4.62,7.03,4.62,11.39s-1.74,8.42-4.62,11.41c-2.91,2.97-6.9,4.71-11.17,4.71s-8.26-1.74-11.19-4.71c-2.89-2.99-4.6-7.01-4.6-11.41s1.71-8.42,4.6-11.39c2.93-2.97,6.92-4.71,11.19-4.71Zm0,27.09c2.89,0,5.57-1.24,7.51-3.23,2.08-2.15,3.12-4.75,3.12-7.77,0-6.05-4.75-10.93-10.63-10.93-2.88,0-5.57,1.17-7.51,3.21-2.08,2.1-3.15,4.71-3.15,7.72,0,6.05,4.77,11,10.65,11Z"/>
        <path class="cls-1" d="m111.32.52h2.06v31.11h-5.16v-15.14l-7.55,12.04-.07-.13-7.48-11.89v15.12h-5.16V.52h2.04l.02.04,10.54,17.81L111.32.52Z"/>
      </g>
      <g>
        <path class="cls-1" d="m21.05,39.59v-2.28h-.89v-.32h2.15v.32h-.89v2.28h-.37Z"/>
        <path class="cls-1" d="m23.75,39.62c-.34,0-.61-.1-.81-.29s-.29-.48-.29-.86v-1.48h.37v1.47c0,.29.06.5.19.64.13.13.31.2.54.2s.42-.07.55-.2c.13-.13.19-.35.19-.64v-1.47h.36v1.48c0,.38-.1.66-.29.86-.19.2-.46.29-.81.29Z"/>
        <path class="cls-1" d="m25.61,39.59v-2.61h1.02c.23,0,.42.04.58.11.16.07.29.18.37.31.09.14.13.3.13.49s-.04.35-.13.49c-.09.14-.21.24-.37.31s-.36.11-.58.11h-.81l.17-.17v.96h-.37Zm.37-.93l-.17-.18h.8c.24,0,.42-.05.54-.15.12-.1.18-.25.18-.43s-.06-.33-.18-.43-.3-.15-.54-.15h-.8l.17-.19v1.54Zm1.37.93l-.66-.95h.4l.67.95h-.41Z"/>
        <path class="cls-1" d="m27.92,39.59l1.18-2.61h.37l1.18,2.61h-.39l-1.05-2.4h.15l-1.05,2.4h-.38Zm.5-.65l.1-.3h1.47l.11.3h-1.67Z"/>
        <path class="cls-1" d="m31.04,39.59v-2.61h1.02c.23,0,.42.04.58.11.16.07.29.18.37.31.09.14.13.3.13.49s-.04.35-.13.49c-.09.14-.21.24-.37.31s-.36.11-.58.11h-.81l.17-.17v.96h-.37Zm.37-.93l-.17-.18h.8c.24,0,.42-.05.54-.15.12-.1.18-.25.18-.43s-.06-.33-.18-.43-.3-.15-.54-.15h-.8l.17-.19v1.54Zm1.37.93l-.66-.95h.4l.67.95h-.41Z"/>
        <path class="cls-1" d="m33.61,38.43v-.31h1v.31h-1Z"/>
        <path class="cls-1" d="m35.46,39.62c-.15,0-.3-.03-.43-.1s-.24-.16-.33-.28l.22-.25c.07.1.15.18.24.23.09.05.19.08.3.08.3,0,.45-.18.45-.53v-1.46h-.94v-.32h1.31v1.77c0,.29-.07.51-.21.65-.14.14-.34.22-.61.22Z"/>
        <path class="cls-1" d="m38.21,39.62c-.2,0-.38-.03-.55-.1-.17-.07-.32-.16-.44-.28-.12-.12-.22-.26-.29-.42-.07-.16-.1-.34-.1-.53s.03-.37.1-.53c.07-.16.17-.3.29-.42.12-.12.27-.21.44-.28.17-.07.35-.1.55-.1s.38.03.55.1c.17.07.31.16.44.28s.22.26.29.42c.07.16.1.34.1.53s-.03.37-.1.53c-.07.16-.17.3-.29.42s-.27.21-.44.28c-.17.07-.35.1-.55.1Zm0-.33c.14,0,.28-.02.4-.07.12-.05.23-.12.32-.21s.16-.2.21-.32c.05-.12.08-.25.08-.4s-.03-.28-.08-.4c-.05-.12-.12-.23-.21-.32-.09-.09-.2-.16-.32-.21-.12-.05-.26-.07-.4-.07s-.28.02-.4.07c-.12.05-.23.12-.32.21-.09.09-.16.2-.21.32-.05.12-.08.25-.08.4s.03.28.08.4c.05.12.12.23.21.32.09.09.2.16.32.21.12.05.26.07.4.07Z"/>
        <path class="cls-1" d="m40.68,39.59v-1l.09.23-1.12-1.84h.4l.94,1.55h-.22l.95-1.55h.37l-1.12,1.84.08-.23v1h-.37Z"/>
        <path class="cls-1" d="m43.46,39.59v-2.61h.31l1.17,1.97h-.16l1.15-1.97h.31v2.61s-.35,0-.35,0v-2.04s.08,0,.08,0l-1.03,1.73h-.17l-1.03-1.73h.09v2.04h-.36Z"/>
        <path class="cls-1" d="m46.62,39.59l1.18-2.61h.37l1.18,2.61h-.39l-1.05-2.4h.15l-1.05,2.4h-.38Zm.5-.65l.1-.3h1.47l.11.3h-1.67Z"/>
        <path class="cls-1" d="m50.13,39.62c-.15,0-.3-.03-.43-.1s-.24-.16-.33-.28l.22-.25c.07.1.15.18.24.23.09.05.19.08.3.08.3,0,.45-.18.45-.53v-1.46h-.94v-.32h1.31v1.77c0,.29-.07.51-.21.65-.14.14-.34.22-.61.22Z"/>
        <path class="cls-1" d="m51.7,39.59v-2.61h.31l1.17,1.97h-.16l1.15-1.97h.31v2.61s-.35,0-.35,0v-2.04s.08,0,.08,0l-1.03,1.73h-.17l-1.03-1.73h.09v2.04h-.36Z"/>
        <path class="cls-1" d="m56.34,39.62c-.34,0-.61-.1-.81-.29s-.29-.48-.29-.86v-1.48h.37v1.47c0,.29.06.5.19.64.13.13.31.2.54.2s.42-.07.55-.2c.13-.13.19-.35.19-.64v-1.47h.36v1.48c0,.38-.1.66-.29.86-.19.2-.46.29-.81.29Z"/>
        <path class="cls-1" d="m57.75,39.59l1.18-2.61h.37l1.18,2.61h-.39l-1.05-2.4h.15l-1.05,2.4h-.38Zm.5-.65l.1-.3h1.47l.11.3h-1.67Z"/>
        <path class="cls-1" d="m61.63,39.62c-.2,0-.39-.03-.57-.09-.18-.06-.32-.14-.43-.24l.14-.29c.1.09.23.16.38.22.15.06.31.09.48.09.15,0,.27-.02.37-.05s.16-.08.21-.14c.04-.06.07-.13.07-.21,0-.09-.03-.16-.09-.22-.06-.05-.13-.1-.23-.13s-.2-.06-.31-.09c-.11-.02-.22-.05-.34-.09-.11-.03-.22-.08-.31-.13-.09-.05-.17-.12-.23-.21-.06-.09-.09-.2-.09-.34s.04-.26.11-.37c.07-.11.18-.2.33-.27.15-.07.34-.1.56-.1.15,0,.3.02.45.06.15.04.28.1.39.17l-.12.3c-.11-.07-.23-.13-.35-.16-.12-.03-.24-.05-.36-.05-.15,0-.27.02-.36.06-.09.04-.16.09-.21.15s-.07.13-.07.21c0,.09.03.17.09.22.06.05.13.1.23.13.09.03.2.06.31.09.11.03.22.06.34.09.11.03.22.07.31.13.09.05.17.12.23.21.06.09.09.2.09.33s-.04.25-.11.37c-.07.11-.18.2-.33.27s-.34.1-.57.1Z"/>
        <path class="cls-1" d="m63.18,39.59v-2.61h.37v2.61h-.37Z"/>
        <path class="cls-1" d="m64.84,39.98l1.27-3.62h.33l-1.27,3.62h-.33Z"/>
        <path class="cls-1" d="m67.64,39.59v-2.76h.36v1.31l-.04.46.02.46v.53h-.34Zm1.05.02c-.17,0-.32-.04-.46-.11-.14-.08-.24-.19-.32-.34-.08-.15-.12-.33-.12-.56s.04-.41.12-.56c.08-.15.19-.26.32-.33.14-.07.28-.11.45-.11.19,0,.36.04.51.13.15.08.27.2.35.35s.13.33.13.53-.04.38-.13.53-.2.27-.35.35c-.15.08-.32.13-.51.13Zm-.03-.31c.13,0,.24-.03.34-.09.1-.06.18-.14.24-.24.06-.11.09-.23.09-.37s-.03-.26-.09-.37c-.06-.1-.14-.18-.24-.24-.1-.06-.21-.09-.34-.09s-.24.03-.34.09c-.1.06-.18.14-.24.24-.06.1-.09.23-.09.37s.03.26.09.37c.06.11.14.19.24.24.1.06.21.09.34.09Z"/>
        <path class="cls-1" d="m70.2,40.34c-.09,0-.19-.02-.28-.05-.09-.03-.17-.08-.23-.14l.15-.27s.1.08.16.11c.06.02.12.04.19.04.09,0,.16-.02.22-.07.06-.04.11-.12.16-.24l.12-.27.04-.04.77-1.79h.35l-.96,2.17c-.06.14-.12.25-.19.33-.07.08-.15.14-.23.17s-.18.05-.28.05Zm.47-.68l-.9-2.04h.37l.77,1.76-.24.28Z"/>
        <path class="cls-1" d="m73.77,39.59v-2.28h-.89v-.32h2.15v.32h-.89v2.28h-.37Z"/>
        <path class="cls-1" d="m74.98,39.59l1.08-1.48v.29l-1.02-1.41h.42l.81,1.11h-.17s.81-1.11.81-1.11h.41l-1.02,1.39v-.27l1.08,1.48h-.43l-.86-1.19h.16l-.85,1.19h-.43Z"/>
        <path class="cls-1" d="m78.24,39.59v-2.28h-.89v-.32h2.15v.32h-.89v2.28h-.37Z"/>
        <path class="cls-1" d="m82.08,39.62c-.2,0-.39-.03-.55-.1-.17-.07-.32-.16-.44-.28-.12-.12-.22-.26-.29-.42-.07-.16-.1-.34-.1-.53s.03-.37.1-.53c.07-.16.17-.3.29-.42.13-.12.27-.21.44-.28s.35-.1.56-.1.39.03.57.1c.17.07.32.17.44.3l-.23.23c-.11-.1-.22-.18-.35-.23s-.26-.07-.41-.07-.29.02-.41.07c-.13.05-.24.12-.33.21-.09.09-.16.2-.22.32s-.08.26-.08.4.03.27.08.4.12.23.22.32c.09.09.2.16.33.21.13.05.26.07.41.07.14,0,.27-.02.4-.07s.25-.12.36-.22l.21.28c-.13.11-.28.19-.45.25-.17.06-.35.08-.53.08Zm.63-.38v-.97h.36v1.02l-.36-.05Z"/>
        <path class="cls-1" d="m83.78,39.59v-2.61h1.02c.23,0,.42.04.58.11.16.07.29.18.37.31.09.14.13.3.13.49s-.04.35-.13.49c-.09.14-.21.24-.37.31s-.36.11-.58.11h-.81l.17-.17v.96h-.37Zm.37-.93l-.17-.18h.8c.24,0,.42-.05.54-.15.12-.1.18-.25.18-.43s-.06-.33-.18-.43-.3-.15-.54-.15h-.8l.17-.19v1.54Zm1.37.93l-.66-.95h.4l.67.95h-.41Z"/>
        <path class="cls-1" d="m87.66,39.62c-.2,0-.38-.03-.55-.1-.17-.07-.32-.16-.44-.28-.12-.12-.22-.26-.29-.42-.07-.16-.1-.34-.1-.53s.03-.37.1-.53c.07-.16.17-.3.29-.42.12-.12.27-.21.44-.28.17-.07.35-.1.55-.1s.38.03.55.1c.17.07.31.16.44.28s.22.26.29.42c.07.16.1.34.1.53s-.03.37-.1.53c-.07.16-.17.3-.29.42s-.27.21-.44.28c-.17.07-.35.1-.55.1Zm0-.33c.14,0,.28-.02.4-.07.12-.05.23-.12.32-.21s.16-.2.21-.32c.05-.12.08-.25.08-.4s-.03-.28-.08-.4c-.05-.12-.12-.23-.21-.32-.09-.09-.2-.16-.32-.21-.12-.05-.26-.07-.4-.07s-.28.02-.4.07c-.12.05-.23.12-.32.21-.09.09-.16.2-.21.32-.05.12-.08.25-.08.4s.03.28.08.4c.05.12.12.23.21.32.09.09.2.16.32.21.12.05.26.07.4.07Z"/>
        <path class="cls-1" d="m90.69,39.62c-.34,0-.61-.1-.81-.29s-.29-.48-.29-.86v-1.48h.37v1.47c0,.29.06.5.19.64.13.13.31.2.54.2s.42-.07.55-.2c.13-.13.19-.35.19-.64v-1.47h.36v1.48c0,.38-.1.66-.29.86-.19.2-.46.29-.81.29Z"/>
        <path class="cls-1" d="m92.55,39.59v-2.61h1.02c.23,0,.42.04.58.11.16.07.29.18.37.31.09.14.13.3.13.49s-.04.35-.13.49c-.09.14-.21.24-.37.31s-.36.11-.58.11h-.81l.17-.17v.96h-.37Zm.37-.93l-.17-.19h.8c.24,0,.42-.05.54-.15.12-.1.18-.25.18-.43s-.06-.33-.18-.43-.3-.15-.54-.15h-.8l.17-.19v1.54Z"/>
      </g>
    </g>
  </g>
</svg>